<?xml version="1.0" encoding="utf-8"?>
<!-- Generator: Adobe Illustrator 16.0.0, SVG Export Plug-In . SVG Version: 6.00 Build 0)  -->
<!DOCTYPE svg PUBLIC "-//W3C//DTD SVG 1.1//EN" "http://www.w3.org/Graphics/SVG/1.1/DTD/svg11.dtd">
<svg version="1.1" id="Layer_1" xmlns="http://www.w3.org/2000/svg" xmlns:xlink="http://www.w3.org/1999/xlink" x="0px" y="0px"
	 width="490.672px" height="284.84px" viewBox="0 0 490.672 284.84" enable-background="new 0 0 490.672 284.84"
	 xml:space="preserve">
<path fill="#1F1B0F" d="M384.26,93.194c26.345-5.401,82.142,8.251,102.394,87.768c20.256,79.515-42.008,93.394-55.135,96.019
	c-13.129,2.621-69.389,19.129-109.522-9.004C281.865,239.848,278.115,114.948,384.26,93.194z"/>
<g>
	<path fill="#D2AF2A" d="M315.996,154.331c13.502-8.252,22.879,10.502,40.509,10.126c17.628-0.375,48.384-13.877,59.636-18.003
		c11.254-4.126,30.754-6.375,40.508,5.627c9.754,12.001,11.629,33.383-9.002,55.887c-20.627,22.504-36.004,47.26-25.879,57.762
		c10.127,10.5,15.002,9.754,15.002,9.754l-16.002,4.309c0,0-26.756-16.313-47.761-12.564c-21.003,3.752-25.129,12.754-25.129,12.754
		l-9.376-3.127l-9.379-4.373c0,0,5.25-17.254-2.248-23.631c-7.502-6.377-30.008-19.881-29.632-40.883
		C297.619,186.963,302.494,162.583,315.996,154.331z"/>
	<path fill="#F1C617" d="M438.145,163.334c-42.445-19.977-93.706,24.148-112.5-10.826c-3.085-0.62-6.235-0.264-9.648,1.822
		c-13.502,8.252-18.377,32.633-18.753,53.637c-0.376,21.002,22.13,34.506,29.632,40.883c7.498,6.377,2.248,23.631,2.248,23.631
		l11.379,5.373l16.376,5.318c0,0,23.126,3.752,44.128,0c10.156-1.814,11.952-2.246,19.506-3.568
		c0.77-0.869-9.275-14.934-1.791-24.867c1.361-11.961,12.842-28.893,27.254-44.924C454.223,190.233,455.697,171.592,438.145,163.334
		z M423.111,280.733"/>
</g>
<path fill="#423B2C" d="M429.145,272.198c0,0-11.25-11.721,5.252-32.975c16.502-21.256,38.289-50.541,28.035-75.797
	c0,0,6,16.692-9.564,37.318c-14.334,18.998-26.16,31.602-30.006,38.164C419.877,244.006,409.453,259.538,429.145,272.198z"/>
<path fill="#423B2C" d="M354.631,164.082c0,0-38.384-45.758,42.255-71.263c0,0-68.012,0.375-92.893,69.264
	c0,0,13.273-21.684,24.632-11.503C345.504,165.708,354.631,164.082,354.631,164.082z"/>
<g>
	<g>
		<path fill="#1F1B0F" d="M407.389,215.467c0,11.049-3.975,20.004-8.879,20.004c-4.9,0-8.875-8.955-8.875-20.004
			c0-11.045,3.975-20.002,8.875-20.002C403.414,195.465,407.389,204.422,407.389,215.467z"/>
		<ellipse fill="#FFFFFF" cx="407.14" cy="212.717" rx="7.501" ry="4.002"/>
	</g>
	<g>
		<path fill="#1F1B0F" d="M348.126,215.467c0,11.049-3.975,20.004-8.878,20.004c-4.9,0-8.876-8.955-8.876-20.004
			c0-11.045,3.976-20.002,8.876-20.002C344.152,195.465,348.126,204.422,348.126,215.467z"/>
		<path fill="#FFFFFF" d="M356.13,212.717c0,2.211-3.357,4.002-7.504,4.002c-4.143,0-7.5-1.791-7.5-4.002s3.357-4,7.5-4
			C352.773,208.717,356.13,210.506,356.13,212.717z"/>
	</g>
</g>
<path fill="#D2AF2A" d="M324.162,246.731c0,0-18.79-14.945-17.12-52.355c5.68-25.721,19.04-35.074,30.753-35.75
	c0,0-14.69-8.222-19.005-7.002c-4.313,1.219-16.752,12.314-21.627,33.133c-4.877,20.814,2.936,40.57,7.374,45.633
	C304.537,230.389,317.314,243.391,324.162,246.731z"/>
<g>
	<g>
		<path fill="#1F1B0F" d="M359.015,107.573c4.012-1.046,6.41-5.148,5.362-9.156l0,0c-0.053-0.181-1.405-5.355-3.96-11.982l0,0
			c-2.605-6.639-6.226-14.689-11.706-21.051l0,0c-2.723-3.123-7.458-3.452-10.584-0.73l0,0c-3.122,2.722-3.452,7.458-0.729,10.582
			l0,0c2.965,3.355,5.985,9.109,8.135,14.379l0,0c2.181,5.279,3.626,10.098,4.129,11.873l0,0c0.146,0.508,0.198,0.727,0.198,0.727
			l0,0c0.885,3.372,3.922,5.605,7.252,5.605l0,0C357.741,107.819,358.38,107.74,359.015,107.573L359.015,107.573z"/>
	</g>
	
		<ellipse transform="matrix(-0.8395 0.5433 -0.5433 -0.8395 663.869 -61.5221)" fill="#423B2C" cx="341.02" cy="67.278" rx="6.001" ry="3.875"/>
	<path fill="#F1C617" d="M352.764,70.85c0,0-3.352,7.994-12.446,8.368l3.89,7.361c0,0,9.611,0.188,13.362-6.94
		C357.57,79.639,354.733,73.475,352.764,70.85z"/>
</g>
<g>
	<g>
		<path fill="#1F1B0F" d="M416.15,107.573c-4.012-1.046-6.408-5.148-5.361-9.156l0,0c0.055-0.181,1.406-5.355,3.959-11.982l0,0
			c2.605-6.639,6.227-14.689,11.707-21.051l0,0c2.723-3.123,7.459-3.452,10.584-0.73l0,0c3.123,2.722,3.451,7.458,0.73,10.582l0,0
			c-2.967,3.355-5.986,9.109-8.135,14.379l0,0c-2.184,5.279-3.629,10.098-4.129,11.873l0,0c-0.146,0.508-0.199,0.727-0.199,0.727
			l0,0c-0.887,3.372-3.922,5.605-7.252,5.605l0,0C417.426,107.819,416.785,107.74,416.15,107.573L416.15,107.573z"/>
	</g>
	<path fill="#423B2C" d="M439.184,70.539c-1.162,1.798-4.359,1.793-7.143-0.007c-2.781-1.801-4.096-4.717-2.936-6.514
		c1.166-1.797,4.363-1.793,7.145,0.007C439.031,65.826,440.346,68.742,439.184,70.539z"/>
	<path fill="#F1C617" d="M422.402,70.85c0,0,3.352,7.994,12.447,8.368l-3.891,7.361c0,0-9.613,0.188-13.363-6.94
		C417.596,79.639,420.432,73.475,422.402,70.85z"/>
</g>
<path opacity="0.5" fill="#339DAF" d="M0,85.164c0,47.033,71.032,85.165,158.62,85.165c10.479,0,20.688-0.582,30.592-1.622
	c6.782,5.906,35.966,26.282,66.947,29.914c-0.04-0.085,1.597,0.097,2.531,0.097c4.967,0,8.98-2.885,8.98-6.433
	c0-0.9-0.267-1.76-0.736-2.536c0,0,0.009,0,0.023,0c-5.843-7.194-19.115-20.89-19.115-33.615c0-0.205-0.078-0.332-0.078-0.525
	c41.925-15.331,69.474-41.155,69.474-70.444C317.238,38.133,246.225,0,158.62,0C71.022,0,0,38.133,0,85.164z"/>
<path opacity="0.5" fill="none" d="M19.828,85.164c0-39.134,62.279-70.97,138.792-70.97c76.535,0,138.791,31.835,138.791,70.97
	c0,22.761-21.928,44.372-58.669,57.802c-6.631,2.426-10.804,7.299-10.804,12.635c0,0.395,0.029,0.853,0.086,1.309
	c0.209,7.334,3.234,14.457,7.097,20.808c-14.265-6.071-26.338-14.318-30.583-18.02c-3.794-3.306-9.435-5.185-15.326-5.185
	c-0.948,0-1.912,0.042-2.875,0.153c-9.299,0.97-18.627,1.467-27.717,1.467C82.098,156.133,19.828,124.295,19.828,85.164z"/>
<g>
	<path fill="#FFF200" d="M37.273,98.476V75.923h3.463v19.951h12.146v2.602H37.273z"/>
	<path fill="#FFF200" d="M74.363,97.72c-2.402,0.797-4.605,1.195-6.609,1.195c-3.281,0-5.804-0.844-7.567-2.531
		s-2.646-4.102-2.646-7.242c0-2.965,0.847-5.402,2.54-7.313s3.847-2.865,6.46-2.865c2.637,0,4.579,0.791,5.827,2.373
		s1.872,4.043,1.872,7.383v1.107H61.232c0.258,4.324,2.59,6.486,6.996,6.486c1.863,0,3.908-0.445,6.135-1.336V97.72z M61.338,87.226
		h9.211v-0.492c0-3.445-1.436-5.168-4.307-5.168c-1.383,0-2.505,0.498-3.366,1.494S61.502,85.444,61.338,87.226z"/>
	<path fill="#FFF200" d="M96.125,98.458c-1.734,0.305-3.41,0.457-5.027,0.457c-2.824,0-4.746-0.507-5.766-1.521
		s-1.529-2.933-1.529-5.757v-9.211h-4.764v-2.602h4.764v-4.113h3.463v4.113h8.473v2.602h-8.473V92.2c0,1.09,0.067,1.84,0.202,2.25
		c0.136,0.41,0.426,0.768,0.872,1.072c0.799,0.527,1.961,0.791,3.487,0.791c1.444,0,2.877-0.164,4.298-0.492V98.458z"/>
	<path fill="#FFF200" d="M106.689,81.565v-1.74c1.301-0.164,2.021-1.465,2.162-3.902h-2.162V70.72h5.203v3.146
		C111.893,78.8,110.158,81.366,106.689,81.565z"/>
	<path fill="#FFF200" d="M123.424,97.702v-3.129c2.684,1.16,5.004,1.74,6.961,1.74c1.406,0,2.569-0.284,3.489-0.853
		s1.38-1.286,1.38-2.153c0-1.113-1.096-2.021-3.287-2.725l-3.709-1.213c-2.895-0.938-4.342-2.59-4.342-4.957
		c0-1.734,0.653-3.076,1.96-4.025s3.155-1.424,5.546-1.424c1.793,0,3.873,0.275,6.24,0.826v2.813
		c-2.285-0.691-4.371-1.037-6.258-1.037c-1.266,0-2.276,0.229-3.032,0.686s-1.134,1.072-1.134,1.846c0,0.949,0.861,1.723,2.584,2.32
		l4.377,1.529c1.594,0.563,2.739,1.233,3.437,2.013s1.046,1.79,1.046,3.032c0,1.805-0.744,3.243-2.232,4.315
		s-3.486,1.608-5.994,1.608C128.264,98.915,125.92,98.511,123.424,97.702z"/>
	<path fill="#FFF200" d="M178.988,98.476V94.89c-1.688,2.684-3.773,4.025-6.258,4.025c-2.156,0-3.858-0.838-5.106-2.514
		s-1.872-3.955-1.872-6.838c0-3.164,0.738-5.722,2.215-7.673s3.41-2.927,5.801-2.927c2.051,0,3.791,0.867,5.221,2.602V70.72h3.463
		v27.756H178.988z M178.988,84.167c-1.617-1.734-3.199-2.602-4.746-2.602c-1.523,0-2.704,0.669-3.542,2.006
		s-1.257,3.221-1.257,5.649c0,4.494,1.342,6.741,4.025,6.741c1.957,0,3.797-1.225,5.52-3.674V84.167z"/>
	<path fill="#FFF200" d="M196.057,98.915c-2.801,0-5.001-0.888-6.601-2.663s-2.399-4.216-2.399-7.321
		c0-3.094,0.803-5.528,2.408-7.304s3.803-2.663,6.592-2.663c2.801,0,5.001,0.888,6.601,2.663s2.399,4.21,2.399,7.304
		c0,3.105-0.8,5.546-2.399,7.321S198.857,98.915,196.057,98.915z M196.057,96.313c1.664,0,2.965-0.65,3.902-1.951
		s1.406-3.111,1.406-5.432c0-2.309-0.469-4.113-1.406-5.414s-2.238-1.951-3.902-1.951s-2.965,0.65-3.902,1.951
		s-1.406,3.105-1.406,5.414c0,2.32,0.469,4.131,1.406,5.432S194.393,96.313,196.057,96.313z"/>
	<path fill="#FFF200" d="M238.578,98.476V81.987h-6.943v-2.602h10.406v19.09H238.578z M238.139,75.062V70.72h4.342v4.342H238.139z"
		/>
	<path fill="#FFF200" d="M269.656,98.458c-1.734,0.305-3.41,0.457-5.027,0.457c-2.824,0-4.746-0.507-5.766-1.521
		s-1.529-2.933-1.529-5.757v-9.211h-4.764v-2.602h4.764v-4.113h3.463v4.113h8.473v2.602h-8.473V92.2c0,1.09,0.067,1.84,0.202,2.25
		c0.136,0.41,0.426,0.768,0.872,1.072c0.799,0.527,1.961,0.791,3.487,0.791c1.444,0,2.877-0.164,4.298-0.492V98.458z"/>
	<path fill="#FFF200" d="M280.643,98.476v-3.902h4.342v3.902H280.643z M281.504,91.11l-0.422-13.447V72.46h3.463v5.203
		l-0.439,13.447H281.504z"/>
</g>
<g>
</g>
<g>
</g>
<g>
</g>
<g>
</g>
<g>
</g>
<g>
</g>
</svg>
